<svg
                width="250"
                height="84"
                viewBox="0 0 250 84"
                fill="none"
                xmlns="http://www.w3.org/2000/svg"
              >
                <rect y="24" width="36" height="36" rx="4.5" fill="black" />
                <path
                  d="M21.375 42H15.75"
                  stroke="white"
                  stroke-width="2.25"
                  stroke-linecap="round"
                  stroke-linejoin="round"
                />
                <path
                  d="M21.375 37.5H15.75"
                  stroke="white"
                  stroke-width="2.25"
                  stroke-linecap="round"
                  stroke-linejoin="round"
                />
                <path
                  d="M25.875 47.625V34.125C25.875 33.5283 25.6379 32.956 25.216 32.534C24.794 32.1121 24.2217 31.875 23.625 31.875H9"
                  stroke="white"
                  stroke-width="2.25"
                  stroke-linecap="round"
                  stroke-linejoin="round"
                />
                <path
                  d="M13.5 52.125H27C27.5967 52.125 28.169 51.8879 28.591 51.466C29.0129 51.044 29.25 50.4717 29.25 49.875V48.75C29.25 48.4516 29.1315 48.1655 28.9205 47.9545C28.7095 47.7435 28.4234 47.625 28.125 47.625H16.875C16.5766 47.625 16.2905 47.7435 16.0795 47.9545C15.8685 48.1655 15.75 48.4516 15.75 48.75V49.875C15.75 50.4717 15.5129 51.044 15.091 51.466C14.669 51.8879 14.0967 52.125 13.5 52.125ZM13.5 52.125C12.9033 52.125 12.331 51.8879 11.909 51.466C11.4871 51.044 11.25 50.4717 11.25 49.875V34.125C11.25 33.5283 11.0129 32.956 10.591 32.534C10.169 32.1121 9.59674 31.875 9 31.875C8.40326 31.875 7.83097 32.1121 7.40901 32.534C6.98705 32.956 6.75 33.5283 6.75 34.125V36.375C6.75 36.6734 6.86853 36.9595 7.0795 37.1705C7.29048 37.3815 7.57663 37.5 7.875 37.5H11.25"
                  stroke="white"
                  stroke-width="2.25"
                  stroke-linecap="round"
                  stroke-linejoin="round"
                />
                <path
                  d="M84.28 66.608C84.6 66.608 84.84 66.768 85 67.088C85.192 67.44 85.288 67.888 85.288 68.432C85.288 69.456 85.016 70.464 84.472 71.456C83.384 73.44 81.944 74.96 80.152 76.016C78.392 77.104 76.584 77.648 74.728 77.648C72.84 77.648 71.256 77.344 69.976 76.736C68.696 76.16 67.608 75.28 66.712 74.096C65.816 72.944 64.952 71.408 64.12 69.488C63.256 67.504 62.536 66.016 61.96 65.024C61.416 64.064 60.84 63.36 60.232 62.912C59.624 62.464 58.84 62.144 57.88 61.952C54.328 61.248 51.464 59.488 49.288 56.672C47.144 53.856 46.072 50.224 46.072 45.776C46.072 40.912 46.952 36.624 48.712 32.912C50.504 29.2 52.92 26.336 55.96 24.32C59.032 22.304 62.424 21.296 66.136 21.296C68.984 21.296 71.544 21.936 73.816 23.216C76.12 24.496 77.944 26.384 79.288 28.88C80.632 31.344 81.304 34.304 81.304 37.76C81.304 41.792 80.696 45.424 79.48 48.656C78.264 51.888 76.584 54.576 74.44 56.72C72.296 58.864 69.832 60.384 67.048 61.28C67.848 61.728 68.536 62.384 69.112 63.248C69.72 64.112 70.36 65.36 71.032 66.992C71.768 68.784 72.552 70.064 73.384 70.832C74.248 71.6 75.304 71.984 76.552 71.984C77.608 71.984 78.632 71.616 79.624 70.88C80.616 70.176 81.736 69.008 82.984 67.376C83.368 66.864 83.8 66.608 84.28 66.608ZM61.72 56.576C64.216 56.576 66.408 55.808 68.296 54.272C70.216 52.736 71.688 50.608 72.712 47.888C73.736 45.136 74.248 42.032 74.248 38.576C74.248 34.768 73.448 31.888 71.848 29.936C70.248 27.952 68.184 26.96 65.656 26.96C63.224 26.96 61.048 27.744 59.128 29.312C57.24 30.848 55.768 32.976 54.712 35.696C53.656 38.416 53.128 41.504 53.128 44.96C53.128 48.768 53.928 51.664 55.528 53.648C57.128 55.6 59.192 56.576 61.72 56.576ZM88.9188 62.24C87.4788 62.24 86.2948 61.584 85.3668 60.272C84.4708 58.928 84.0228 57.264 84.0228 55.28C84.0228 52.88 84.1828 50.688 84.5028 48.704C84.8228 46.688 85.3508 44.56 86.0868 42.32C86.4068 41.36 86.8548 40.672 87.4308 40.256C88.0068 39.84 88.9188 39.632 90.1668 39.632C90.8708 39.632 91.3508 39.744 91.6068 39.968C91.8948 40.192 92.0388 40.528 92.0388 40.976C92.0388 41.232 91.8628 42.096 91.5108 43.568C91.1908 44.752 90.9348 45.824 90.7428 46.784C90.1028 50.144 89.7828 52.384 89.7828 53.504C89.7828 54.176 89.8628 54.656 90.0228 54.944C90.1828 55.2 90.4388 55.328 90.7908 55.328C91.2708 55.328 91.8628 54.848 92.5668 53.888C93.3028 52.928 94.0708 51.472 94.8708 49.52C95.7028 47.568 96.5028 45.168 97.2708 42.32C97.5268 41.36 97.9108 40.672 98.4228 40.256C98.9668 39.84 99.7668 39.632 100.823 39.632C101.559 39.632 102.071 39.728 102.359 39.92C102.647 40.08 102.791 40.4 102.791 40.88C102.791 41.68 102.391 43.872 101.591 47.456C100.695 51.552 100.247 54.08 100.247 55.04C100.247 55.648 100.375 56.128 100.631 56.48C100.887 56.8 101.223 56.96 101.639 56.96C102.279 56.96 103.031 56.576 103.895 55.808C104.791 55.008 105.975 53.728 107.447 51.968C107.831 51.52 108.263 51.296 108.743 51.296C109.159 51.296 109.479 51.488 109.703 51.872C109.959 52.256 110.087 52.784 110.087 53.456C110.087 54.736 109.783 55.728 109.175 56.432C107.799 58.128 106.311 59.52 104.711 60.608C103.143 61.696 101.351 62.24 99.3348 62.24C97.7988 62.24 96.6628 61.648 95.9268 60.464C95.2228 59.28 94.8708 57.616 94.8708 55.472C94.3268 57.648 93.5108 59.328 92.4228 60.512C91.3348 61.664 90.1668 62.24 88.9188 62.24ZM112.483 36.464C111.139 36.464 110.131 36.16 109.459 35.552C108.787 34.912 108.451 34.032 108.451 32.912C108.451 31.792 108.883 30.864 109.747 30.128C110.643 29.36 111.747 28.976 113.059 28.976C114.243 28.976 115.203 29.264 115.939 29.84C116.675 30.416 117.043 31.232 117.043 32.288C117.043 33.568 116.627 34.592 115.795 35.36C114.963 36.096 113.859 36.464 112.483 36.464ZM112.099 62.24C110.019 62.24 108.499 61.504 107.539 60.032C106.611 58.56 106.147 56.608 106.147 54.176C106.147 52.736 106.323 50.896 106.675 48.656C107.059 46.384 107.539 44.272 108.115 42.32C108.403 41.296 108.787 40.592 109.267 40.208C109.747 39.824 110.515 39.632 111.571 39.632C113.203 39.632 114.019 40.176 114.019 41.264C114.019 42.064 113.715 43.92 113.107 46.832C112.339 50.352 111.955 52.736 111.955 53.984C111.955 54.944 112.083 55.68 112.339 56.192C112.595 56.704 113.027 56.96 113.635 56.96C114.211 56.96 114.931 56.56 115.795 55.76C116.659 54.96 117.811 53.696 119.251 51.968C119.635 51.52 120.067 51.296 120.547 51.296C120.963 51.296 121.283 51.488 121.507 51.872C121.763 52.256 121.891 52.784 121.891 53.456C121.891 54.736 121.587 55.728 120.979 56.432C117.811 60.304 114.851 62.24 112.099 62.24ZM127.175 62.24C124.039 62.24 121.591 61.36 119.831 59.6C118.103 57.808 117.239 55.456 117.239 52.544C117.239 49.952 117.751 47.68 118.775 45.728C119.799 43.776 121.127 42.272 122.759 41.216C124.391 40.16 126.103 39.632 127.895 39.632C129.655 39.632 131.015 40.16 131.975 41.216C132.967 42.24 133.463 43.568 133.463 45.2C133.463 46.544 133.159 47.68 132.551 48.608C131.975 49.536 131.207 50 130.247 50C129.639 50 129.143 49.856 128.759 49.568C128.407 49.28 128.231 48.88 128.231 48.368C128.231 48.144 128.263 47.888 128.327 47.6C128.391 47.312 128.439 47.104 128.471 46.976C128.631 46.496 128.711 46.048 128.711 45.632C128.711 45.216 128.599 44.896 128.375 44.672C128.183 44.448 127.895 44.336 127.511 44.336C126.775 44.336 126.087 44.672 125.447 45.344C124.807 45.984 124.295 46.864 123.911 47.984C123.527 49.104 123.335 50.336 123.335 51.68C123.335 55.392 124.951 57.248 128.183 57.248C129.495 57.248 130.903 56.816 132.407 55.952C133.943 55.056 135.447 53.728 136.919 51.968C137.303 51.52 137.735 51.296 138.215 51.296C138.631 51.296 138.951 51.488 139.175 51.872C139.431 52.256 139.559 52.784 139.559 53.456C139.559 54.672 139.255 55.664 138.647 56.432C137.143 58.288 135.335 59.728 133.223 60.752C131.143 61.744 129.127 62.24 127.175 62.24ZM163.423 51.296C163.839 51.296 164.159 51.488 164.383 51.872C164.639 52.256 164.767 52.784 164.767 53.456C164.767 54.736 164.463 55.728 163.855 56.432C162.415 58.192 160.959 59.6 159.487 60.656C158.015 61.712 156.271 62.24 154.255 62.24C151.791 62.24 149.807 61.536 148.303 60.128C146.799 58.72 146.047 56.848 146.047 54.512C146.047 53.264 146.687 52.368 147.967 51.824C149.375 51.216 150.383 50.576 150.991 49.904C151.599 49.2 151.903 48.352 151.903 47.36C151.903 46.784 151.775 46.352 151.519 46.064C151.295 45.776 151.007 45.632 150.655 45.632C149.791 45.632 148.831 46.256 147.775 47.504C146.751 48.752 145.791 50.368 144.895 52.352C143.999 54.304 143.295 56.32 142.783 58.4C142.431 59.904 142.015 60.928 141.535 61.472C141.087 61.984 140.367 62.24 139.375 62.24C138.383 62.24 137.647 61.888 137.167 61.184C136.719 60.448 136.415 59.328 136.255 57.824C136.095 56.32 136.015 54.112 136.015 51.2C136.015 46.272 136.511 41.136 137.503 35.792C138.527 30.448 140.015 25.968 141.967 22.352C143.951 18.704 146.319 16.88 149.071 16.88C150.543 16.88 151.727 17.52 152.623 18.8C153.551 20.048 154.015 21.68 154.015 23.696C154.015 26.928 153.071 30.288 151.183 33.776C149.295 37.232 146.223 41.28 141.967 45.92C141.871 47.584 141.823 49.296 141.823 51.056C143.359 47.056 145.119 44.16 147.103 42.368C149.087 40.544 150.943 39.632 152.671 39.632C154.271 39.632 155.551 40.176 156.511 41.264C157.503 42.352 157.999 43.696 157.999 45.296C157.999 47.056 157.551 48.672 156.655 50.144C155.759 51.616 154.223 52.928 152.047 54.08C152.175 54.944 152.559 55.648 153.199 56.192C153.871 56.704 154.671 56.96 155.599 56.96C156.591 56.96 157.551 56.576 158.479 55.808C159.407 55.04 160.623 53.76 162.127 51.968C162.511 51.52 162.943 51.296 163.423 51.296ZM148.063 21.632C147.487 21.632 146.847 22.464 146.143 24.128C145.439 25.76 144.751 27.984 144.079 30.8C143.439 33.584 142.911 36.624 142.495 39.92C144.479 37.584 146.111 35.04 147.391 32.288C148.703 29.536 149.359 27.04 149.359 24.8C149.359 23.776 149.247 22.992 149.023 22.448C148.799 21.904 148.479 21.632 148.063 21.632ZM174.29 62.384C170.034 62.384 166.626 61.584 164.066 59.984C161.506 58.352 160.226 55.872 160.226 52.544C160.226 50.784 160.53 49.44 161.138 48.512C161.746 47.584 162.642 47.12 163.826 47.12C164.69 47.12 165.394 47.344 165.938 47.792C166.482 48.24 166.754 48.816 166.754 49.52C166.754 50.16 166.706 50.72 166.61 51.2C166.61 51.328 166.578 51.552 166.514 51.872C166.482 52.192 166.466 52.528 166.466 52.88C166.466 54.32 167.186 55.392 168.626 56.096C170.098 56.8 172.146 57.152 174.77 57.152C177.49 57.152 179.618 56.672 181.154 55.712C182.69 54.72 183.458 53.344 183.458 51.584C183.458 50.496 183.106 49.568 182.402 48.8C181.698 48 180.818 47.344 179.762 46.832C178.706 46.288 177.218 45.632 175.298 44.864C172.834 43.904 170.818 42.992 169.25 42.128C167.714 41.264 166.386 40.096 165.266 38.624C164.178 37.12 163.634 35.264 163.634 33.056C163.634 30.752 164.242 28.704 165.458 26.912C166.706 25.12 168.482 23.728 170.786 22.736C173.122 21.744 175.858 21.248 178.994 21.248C181.33 21.248 183.474 21.6 185.426 22.304C187.378 22.976 188.93 24.016 190.082 25.424C191.266 26.832 191.858 28.56 191.858 30.608C191.858 32.624 191.554 34.144 190.946 35.168C190.338 36.192 189.442 36.704 188.258 36.704C187.426 36.704 186.722 36.448 186.146 35.936C185.602 35.424 185.33 34.816 185.33 34.112C185.33 33.504 185.378 32.944 185.474 32.432C185.57 31.472 185.618 30.864 185.618 30.608C185.618 29.264 184.962 28.24 183.65 27.536C182.338 26.832 180.706 26.48 178.754 26.48C176.002 26.48 173.89 26.992 172.418 28.016C170.978 29.008 170.258 30.416 170.258 32.24C170.258 33.456 170.626 34.496 171.362 35.36C172.13 36.224 173.074 36.944 174.194 37.52C175.314 38.096 176.882 38.784 178.898 39.584C181.33 40.576 183.282 41.472 184.754 42.272C186.226 43.072 187.474 44.16 188.498 45.536C189.554 46.912 190.082 48.608 190.082 50.624C190.082 54.4 188.642 57.312 185.762 59.36C182.914 61.376 179.09 62.384 174.29 62.384ZM197.353 62.24C196.137 62.24 195.273 61.6 194.761 60.32C194.281 59.04 194.041 56.992 194.041 54.176C194.041 50.016 194.633 46.064 195.817 42.32C196.105 41.392 196.569 40.72 197.209 40.304C197.881 39.856 198.809 39.632 199.993 39.632C200.633 39.632 201.081 39.712 201.337 39.872C201.593 40.032 201.721 40.336 201.721 40.784C201.721 41.296 201.481 42.448 201.001 44.24C200.681 45.52 200.425 46.64 200.233 47.6C200.041 48.56 199.881 49.744 199.753 51.152C200.809 48.4 201.993 46.16 203.305 44.432C204.617 42.704 205.897 41.472 207.145 40.736C208.425 40 209.593 39.632 210.649 39.632C212.729 39.632 213.769 40.672 213.769 42.752C213.769 44 213.417 46.256 212.713 49.52C212.105 52.304 211.801 54.144 211.801 55.04C211.801 56.32 212.265 56.96 213.193 56.96C213.833 56.96 214.585 56.576 215.449 55.808C216.345 55.008 217.529 53.728 219.001 51.968C219.385 51.52 219.817 51.296 220.297 51.296C220.713 51.296 221.033 51.488 221.257 51.872C221.513 52.256 221.641 52.784 221.641 53.456C221.641 54.736 221.337 55.728 220.729 56.432C219.353 58.128 217.865 59.52 216.265 60.608C214.697 61.696 212.905 62.24 210.889 62.24C209.257 62.24 208.025 61.776 207.193 60.848C206.361 59.888 205.945 58.512 205.945 56.72C205.945 55.824 206.169 54.224 206.617 51.92C207.033 49.904 207.241 48.512 207.241 47.744C207.241 47.232 207.065 46.976 206.713 46.976C206.297 46.976 205.705 47.52 204.937 48.608C204.201 49.664 203.433 51.072 202.633 52.832C201.865 54.592 201.241 56.448 200.761 58.4C200.409 59.904 199.993 60.928 199.513 61.472C199.065 61.984 198.345 62.24 197.353 62.24ZM224.045 36.464C222.701 36.464 221.693 36.16 221.021 35.552C220.349 34.912 220.013 34.032 220.013 32.912C220.013 31.792 220.445 30.864 221.309 30.128C222.205 29.36 223.309 28.976 224.621 28.976C225.805 28.976 226.765 29.264 227.501 29.84C228.237 30.416 228.605 31.232 228.605 32.288C228.605 33.568 228.189 34.592 227.357 35.36C226.525 36.096 225.421 36.464 224.045 36.464ZM223.661 62.24C221.581 62.24 220.061 61.504 219.101 60.032C218.173 58.56 217.709 56.608 217.709 54.176C217.709 52.736 217.885 50.896 218.237 48.656C218.621 46.384 219.101 44.272 219.677 42.32C219.965 41.296 220.349 40.592 220.829 40.208C221.309 39.824 222.077 39.632 223.133 39.632C224.765 39.632 225.581 40.176 225.581 41.264C225.581 42.064 225.277 43.92 224.669 46.832C223.901 50.352 223.517 52.736 223.517 53.984C223.517 54.944 223.645 55.68 223.901 56.192C224.157 56.704 224.589 56.96 225.197 56.96C225.773 56.96 226.493 56.56 227.357 55.76C228.221 54.96 229.373 53.696 230.813 51.968C231.197 51.52 231.629 51.296 232.109 51.296C232.525 51.296 232.845 51.488 233.069 51.872C233.325 52.256 233.453 52.784 233.453 53.456C233.453 54.736 233.149 55.728 232.541 56.432C229.373 60.304 226.413 62.24 223.661 62.24ZM248.578 47.36C248.578 49.888 247.986 52.288 246.802 54.56C245.65 56.8 244.098 58.624 242.146 60.032C240.226 61.44 238.162 62.176 235.954 62.24C235.538 68.416 234.594 73.568 233.122 77.696C231.65 81.856 229.49 83.936 226.642 83.936C224.914 83.936 223.634 83.312 222.802 82.064C221.97 80.816 221.554 79.088 221.554 76.88C221.554 73.744 222.274 70.08 223.714 65.888C225.154 61.728 227.378 57.136 230.386 52.112C230.386 47.44 230.354 44.192 230.29 42.368C230.258 41.44 230.626 40.704 231.394 40.16C232.162 39.616 233.122 39.344 234.274 39.344C234.946 39.344 235.426 39.488 235.714 39.776C236.034 40.032 236.21 40.56 236.242 41.36C236.242 42.16 236.258 42.752 236.29 43.136C237.314 41.856 238.322 40.944 239.314 40.4C240.306 39.824 241.362 39.536 242.482 39.536C244.274 39.536 245.73 40.256 246.85 41.696C248.002 43.136 248.578 45.024 248.578 47.36ZM236.194 57.632C237.346 57.376 238.402 56.752 239.362 55.76C240.354 54.736 241.138 53.488 241.714 52.016C242.29 50.512 242.578 48.944 242.578 47.312C242.578 46.352 242.386 45.632 242.002 45.152C241.618 44.64 241.106 44.384 240.466 44.384C239.314 44.384 237.922 45.6 236.29 48.032C236.258 49.44 236.242 51.504 236.242 54.224C236.242 55.696 236.226 56.832 236.194 57.632ZM227.026 79.232C227.89 79.232 228.61 77.344 229.186 73.568C229.762 69.824 230.13 65.152 230.29 59.552C228.914 62.752 227.826 65.808 227.026 68.72C226.226 71.632 225.826 74.08 225.826 76.064C225.826 77.088 225.954 77.872 226.21 78.416C226.434 78.96 226.706 79.232 227.026 79.232Z"
                  fill="black"
                />
              </svg>