<svg width="36" height="36" viewBox="0 0 36 36" fill="none" xmlns="http://www.w3.org/2000/svg">
<rect width="36" height="36" rx="4.5" fill="black"/>
<path d="M21.375 18H15.75" stroke="white" stroke-width="2.25" stroke-linecap="round" stroke-linejoin="round"/>
<path d="M21.375 13.5H15.75" stroke="white" stroke-width="2.25" stroke-linecap="round" stroke-linejoin="round"/>
<path d="M25.875 23.625V10.125C25.875 9.52826 25.6379 8.95597 25.216 8.53401C24.794 8.11205 24.2217 7.875 23.625 7.875H9" stroke="white" stroke-width="2.25" stroke-linecap="round" stroke-linejoin="round"/>
<path d="M13.5 28.125H27C27.5967 28.125 28.169 27.8879 28.591 27.466C29.0129 27.044 29.25 26.4717 29.25 25.875V24.75C29.25 24.4516 29.1315 24.1655 28.9205 23.9545C28.7095 23.7435 28.4234 23.625 28.125 23.625H16.875C16.5766 23.625 16.2905 23.7435 16.0795 23.9545C15.8685 24.1655 15.75 24.4516 15.75 24.75V25.875C15.75 26.4717 15.5129 27.044 15.091 27.466C14.669 27.8879 14.0967 28.125 13.5 28.125ZM13.5 28.125C12.9033 28.125 12.331 27.8879 11.909 27.466C11.4871 27.044 11.25 26.4717 11.25 25.875V10.125C11.25 9.52826 11.0129 8.95597 10.591 8.53401C10.169 8.11205 9.59674 7.875 9 7.875C8.40326 7.875 7.83097 8.11205 7.40901 8.53401C6.98705 8.95597 6.75 9.52826 6.75 10.125V12.375C6.75 12.6734 6.86853 12.9595 7.0795 13.1705C7.29048 13.3815 7.57663 13.5 7.875 13.5H11.25" stroke="white" stroke-width="2.25" stroke-linecap="round" stroke-linejoin="round"/>
</svg>
